<svg xmlns="http://www.w3.org/2000/svg" viewBox="0 0 428.571 637.399">
  <g fill="black">
    <polyline points="102.182,47.125 102.182,77.875 95.238,77.875 95.238,137.399 117.063,137.399 117.063,77.875 110.119,75.893 111.11,47.125 102.182,47.125" />
    <polygon points="214.286,0 119.047,43.155 214.286,84.822 309.524,43.155" />
    <polyline points="132.44,63.988 214.286,93.75 296.131,63.988 296.131,106.649 132.44,106.649 132.44,63.988" />
    <path
      d="M287.374,404.117c78.471-36.93,141.197-119.402,141.197-137.748c-105.655,0-428.571,0-428.571,0
			c0,18.346,62.727,100.818,141.197,137.748C75.317,437.488,35.714,519.461,35.714,637.399c0,0,30.939,0,69.94,0
			c0-127.587,47.383-185.611,81.845-206.084v206.084h53.571V431.315c34.462,20.473,81.845,78.497,81.845,206.084
			c32.465,0,41.356,0,69.94,0C392.857,519.461,353.254,437.488,287.374,404.117z M241.071,370.774v-56.786h93.515
			C308.53,338.128,274.931,361.875,241.071,370.774z M187.5,313.988v56.786c-33.86-8.899-67.458-32.646-93.515-56.786H187.5z" />

    <path
      d="M237.669,199.074l42.746,23.858l-13.088,30.817H256.06l-9.278-14.083l-68.759-18.391L237.669,199.074z
		 M183.823,128.163l48.545,38.438v25.019l-65.114,25.184l-33.964,1.657l-26.178-35.126l24.687-33.798L183.823,128.163z
		 M256.06,116.731l60.64,37.278l-7.456,45.728l-23.361,17.231l-44.734-25.35V166.6l-8.449-48.379L256.06,116.731z M223.752,119.712
		l7.621,35.954l-37.112-30.983L223.752,119.712z" />
  </g>
</svg>
